:SAMPLES-PER-SECOND 30
:FULLY-SPECIFIED
:DEGREES
542
root  53.8616 35.8873 4.2426 -148.414 76.3354 -160.689
RightUpLeg  -45.3031 -7.39692 9.76476
RightLeg  31.7614 2.3358 1.30902
RightFoot  0.557631 0.478557 -4.55046
RightToes  -1.33073e-015 0 -3.6325e-017
Spine  72.0146 -0.301035 5.61566
Spine1  3.37701 2.38916 3.77581
HEad  -66.4201 24.6421 19.4567
LeftShoulder1  1.19264 -12.4147 1.08417
LeftArm  -78.5952 -61.7548 16.8672
LeftForeArm  -8.07117 -18.3766 -0.513109
LeftHand  -0.0183959 4.62308 -1.68525
RightShoulder  -0.313723 6.86106 -13.1633
RightArm  -55.8616 56.5311 -5.79081
RightForeArm  -41.7493 9.6351 -3.41104
RightHand  -0.229684 11.2398 -2.0208
LeftUpLeg  -45.8146 3.90529 13.4769
LeftLeg  32.8026 -8.15391 -5.28226
LeftFoot  2.13179 0.454738 -3.95686
LeftToes  -1.03319e-009 7.52634e-011 -3.26162e-012
543
root  53.7355 36.2179 4.81446 -155.327 74.5835 -166.069
RightUpLeg  -42.5089 -10.0913 10.1436
RightLeg  28.926 2.65597 1.34852
RightFoot  1.49649 0.55161 -4.80106
RightToes  -1.33073e-015 0 -3.6325e-017
Spine  69.8658 -0.629438 5.43653
Spine1  5.14119 1.70286 3.80712
HEad  -63.0084 22.0237 20.1814
LeftShoulder1  1.35093 -11.7643 -0.45524
LeftArm  -74.9396 -63.5461 15.7133
LeftForeArm  -8.94866 -18.3057 -1.04732
LeftHand  -0.0176259 3.80417 -0.507269
RightShoulder  -0.0257328 6.11004 -9.99291
RightArm  -55.1631 57.8143 -3.37435
RightForeArm  -38.5233 11.9078 -2.70155
RightHand  -0.341807 10.6017 -2.88415
LeftUpLeg  -42.5557 2.46543 13.3832
LeftLeg  28.0716 -9.41887 -5.0687
LeftFoot  4.34246 0.611575 -4.62834
LeftToes  -1.03319e-009 7.52634e-011 -3.26162e-012
544
root  53.6329 36.4931 5.4211 -159.856 72.5534 -169.715
RightUpLeg  -40.5817 -12.9259 10.8936
RightLeg  26.2163 3.16313 1.45661
RightFoot  2.59987 0.686392 -5.4598
RightToes  -1.33073e-015 0 -3.6325e-017
Spine  67.5869 -0.191413 5.31766
Spine1  5.03636 1.53024 4.96639
HEad  -57.3066 14.8184 18.5248
LeftShoulder1  1.51096 -11.4609 -1.87346
LeftArm  -69.025 -65.5177 8.1669
LeftForeArm  -6.87682 -19.1555 -2.17906
LeftHand  -0.0338418 5.26263 -1.51652
RightShoulder  0.223184 5.56233 -6.89429
RightArm  -53.6456 57.9115 1.83836
RightForeArm  -33.3106 14.873 -1.09898
RightHand  -0.313344 10.0155 -2.7511
LeftUpLeg  -39.9697 1.88096 13.1926
LeftLeg  23.3236 -11.4978 -5.05459
LeftFoot  5.69333 0.841414 -5.85186
LeftToes  -1.03319e-009 7.52634e-011 -3.26162e-012
545
root  53.5689 36.76 6.01714 -165.687 70.6718 -174.349
RightUpLeg  -38.3606 -15.8653 10.7822
RightLeg  23.841 3.71807 1.56602
RightFoot  3.24407 0.761919 -5.77728
RightToes  -1.33073e-015 0 -3.6325e-017
Spine  64.1601 -0.505116 4.78324
Spine1  7.33054 0.730107 4.0495
HEad  -53.0517 9.70293 17.6507
LeftShoulder1  1.61556 -10.8765 -3.18394
LeftArm  -63.7974 -66.6842 3.07702
LeftForeArm  -5.83663 -20.1383 -3.30969
LeftHand  -0.0141451 4.28666 -0.983662
RightShoulder  0.434028 5.41739 -4.06818
RightArm  -53.8951 57.4105 7.59814
RightForeArm  -27.9572 17.5238 0.830408
RightHand  -0.429625 10.6306 -3.51552
LeftUpLeg  -36.7812 0.990147 12.5064
LeftLeg  18.7599 -12.3671 -4.34842
LeftFoot  5.50574 0.999924 -6.95772
LeftToes  -1.03319e-009 7.52634e-011 -3.26162e-012
546
root  53.5176 37.0598 6.61097 -171.602 68.5258 -178.99
RightUpLeg  -35.5739 -17.8985 9.42799
RightLeg  21.0783 2.95276 1.53725
RightFoot  3.78947 0.740289 -5.36263
RightToes  -1.33073e-015 0 -3.6325e-017
Spine  60.6565 -0.4143 3.63346
Spine1  10.1467 -0.0668657 3.74585
HEad  -49.7956 6.558 15.194
LeftShoulder1  1.77757 -9.63218 -5.76744
LeftArm  -57.9161 -68.4084 -1.674
LeftForeArm  -5.00138 -21.1062 -4.14272
LeftHand  -0.0192225 4.13472 -1.1224
RightShoulder  0.581904 4.63104 -1.49842
RightArm  -54.603 57.0114 13.0292
RightForeArm  -20.5557 20.2696 3.30124
RightHand  -0.336303 10.051 -2.93067
LeftUpLeg  -33.9736 0.787304 10.9892
LeftLeg  15.5391 -9.91738 -2.71807
LeftFoot  3.79697 0.690264 -5.35772
LeftToes  -1.03319e-009 7.52634e-011 -3.26162e-012
547
root  53.4955 37.3372 7.15024 -176.063 65.5053 177.869
RightUpLeg  -32.3333 -16.9215 6.11392
RightLeg  18.7447 -1.68166 1.37594
RightFoot  4.47314 0.848799 -5.88353
RightToes  -1.33073e-015 0 -3.6325e-017
Spine  57.8267 0.822538 2.41685
Spine1  10.9153 -0.73488 7.22156
HEad  -46.3162 4.07911 11.8653
LeftShoulder1  1.71565 -8.05134 -7.24077
LeftArm  -44.4564 -68.4057 -20.0358
LeftForeArm  -0.749702 -23.6857 -5.11009
LeftHand  -0.029873 2.47066 0.69479
RightShoulder  0.705825 4.29048 0.714813
RightArm  -50.6474 54.5068 17.7061
RightForeArm  -16.7143 23.7987 5.88429
RightHand  -0.429557 9.8442 -3.6683
LeftUpLeg  -31.7367 3.69565 8.10184
LeftLeg  14.3595 -8.0969 -1.8966
LeftFoot  2.30586 0.573959 -4.9685
LeftToes  -1.03319e-009 7.52634e-011 -3.26162e-012
548
root  53.5309 37.5186 7.58834 -179.089 61.9374 176.17
RightUpLeg  -29.2897 -15.3188 2.6932
RightLeg  17.2761 -7.34652 1.25654
RightFoot  4.32055 0.777948 -5.43473
RightToes  -1.33073e-015 0 -3.6325e-017
Spine  55.2254 0.0896936 2.58594
Spine1  11.0728 -1.50738 7.02073
HEad  -42.9734 3.46584 10.5114
LeftShoulder1  1.96022 -7.98855 -9.70611
LeftArm  -32.2527 -66.1013 -30.246
LeftForeArm  -0.274606 -26.1657 -5.63513
LeftHand  -0.0125581 3.6808 -0.473227
RightShoulder  0.856759 3.60752 4.11601
RightArm  -42.782 51.5148 23.1266
RightForeArm  -16.3293 28.2991 6.95728
RightHand  -0.431892 9.49976 -3.73951
LeftUpLeg  -30.1086 8.1538 4.89323
LeftLeg  16.4467 -5.3065 -1.45451
LeftFoot  0.187393 0.682062 -6.72605
LeftToes  -1.03319e-009 7.52634e-011 -3.26162e-012
549
root  53.5314 37.6964 7.98826 178.357 58.3285 175.084
RightUpLeg  -26.1319 -14.5966 -0.0573568
RightLeg  15.6619 -11.8954 1.39469
RightFoot  4.16209 0.734248 -5.17355
RightToes  -1.33073e-015 0 -3.6325e-017
Spine  52.8014 -0.537496 3.0824
Spine1  10.5816 -1.69045 6.37964
HEad  -39.6527 2.44277 9.61043
LeftShoulder1  2.32408 -8.36349 -12.5267
LeftArm  -21.3549 -63.2712 -37.5239
LeftForeArm  -1.0432 -27.879 -6.07035
LeftHand  -0.0152338 3.01645 -0.0816255
RightShoulder  0.990788 2.84267 8.15913
RightArm  -36.0849 46.9534 25.9703
RightForeArm  -15.3748 33.3699 8.23502
RightHand  -0.306223 8.55315 -2.93405
LeftUpLeg  -28.1595 11.4997 2.69011
LeftLeg  19.8433 -1.31084 -0.189259
LeftFoot  -1.71709 0.497544 -5.78252
LeftToes  -1.03319e-009 7.52634e-011 -3.26162e-012
